<mxfile host="app.diagrams.net" modified="2024-06-09T18:41:40.667Z" agent="Mozilla/5.0 (Windows NT 10.0; Win64; x64) AppleWebKit/537.36 (KHTML, like Gecko) Chrome/125.0.0.0 Safari/537.36" etag="CiblV8MgXv0gnF6bcFGY" version="24.5.2" type="device">
  <diagram name="Page-1" id="UQvI0nGrg6r2Qj8PmbzW">
    <mxGraphModel dx="1034" dy="412" grid="1" gridSize="10" guides="1" tooltips="1" connect="1" arrows="1" fold="1" page="1" pageScale="1" pageWidth="827" pageHeight="1169" math="0" shadow="0">
      <root>
        <mxCell id="0" />
        <mxCell id="1" parent="0" />
        <mxCell id="8W1Rdy9I_rf0wpd-ECID-3" style="edgeStyle=orthogonalEdgeStyle;rounded=0;orthogonalLoop=1;jettySize=auto;html=1;exitX=0.5;exitY=0.5;exitDx=0;exitDy=15;exitPerimeter=0;entryX=0.5;entryY=0;entryDx=0;entryDy=0;" edge="1" parent="1" source="8W1Rdy9I_rf0wpd-ECID-1" target="8W1Rdy9I_rf0wpd-ECID-2">
          <mxGeometry relative="1" as="geometry" />
        </mxCell>
        <mxCell id="8W1Rdy9I_rf0wpd-ECID-1" value="Start" style="html=1;dashed=0;whiteSpace=wrap;shape=mxgraph.dfd.start" vertex="1" parent="1">
          <mxGeometry x="300" y="60" width="80" height="30" as="geometry" />
        </mxCell>
        <mxCell id="8W1Rdy9I_rf0wpd-ECID-5" value="" style="edgeStyle=orthogonalEdgeStyle;rounded=0;orthogonalLoop=1;jettySize=auto;html=1;" edge="1" parent="1" source="8W1Rdy9I_rf0wpd-ECID-2" target="8W1Rdy9I_rf0wpd-ECID-4">
          <mxGeometry relative="1" as="geometry" />
        </mxCell>
        <mxCell id="8W1Rdy9I_rf0wpd-ECID-2" value="print Introduction" style="shape=parallelogram;perimeter=parallelogramPerimeter;whiteSpace=wrap;html=1;dashed=0;" vertex="1" parent="1">
          <mxGeometry x="240" y="130" width="200" height="50" as="geometry" />
        </mxCell>
        <mxCell id="8W1Rdy9I_rf0wpd-ECID-7" value="" style="edgeStyle=orthogonalEdgeStyle;rounded=0;orthogonalLoop=1;jettySize=auto;html=1;" edge="1" parent="1" source="8W1Rdy9I_rf0wpd-ECID-4">
          <mxGeometry relative="1" as="geometry">
            <mxPoint x="340" y="340" as="targetPoint" />
          </mxGeometry>
        </mxCell>
        <mxCell id="8W1Rdy9I_rf0wpd-ECID-4" value="Pick two random celeb" style="html=1;dashed=0;whiteSpace=wrap;" vertex="1" parent="1">
          <mxGeometry x="220" y="230" width="240" height="50" as="geometry" />
        </mxCell>
        <mxCell id="8W1Rdy9I_rf0wpd-ECID-10" value="" style="edgeStyle=orthogonalEdgeStyle;rounded=0;orthogonalLoop=1;jettySize=auto;html=1;" edge="1" parent="1" source="8W1Rdy9I_rf0wpd-ECID-8" target="8W1Rdy9I_rf0wpd-ECID-9">
          <mxGeometry relative="1" as="geometry" />
        </mxCell>
        <mxCell id="8W1Rdy9I_rf0wpd-ECID-25" value="Correct" style="edgeLabel;html=1;align=center;verticalAlign=middle;resizable=0;points=[];" vertex="1" connectable="0" parent="8W1Rdy9I_rf0wpd-ECID-10">
          <mxGeometry x="-0.2131" relative="1" as="geometry">
            <mxPoint as="offset" />
          </mxGeometry>
        </mxCell>
        <mxCell id="8W1Rdy9I_rf0wpd-ECID-14" value="" style="edgeStyle=orthogonalEdgeStyle;rounded=0;orthogonalLoop=1;jettySize=auto;html=1;" edge="1" parent="1" source="8W1Rdy9I_rf0wpd-ECID-8" target="8W1Rdy9I_rf0wpd-ECID-13">
          <mxGeometry relative="1" as="geometry" />
        </mxCell>
        <mxCell id="8W1Rdy9I_rf0wpd-ECID-26" value="Incorrect" style="edgeLabel;html=1;align=center;verticalAlign=middle;resizable=0;points=[];" vertex="1" connectable="0" parent="8W1Rdy9I_rf0wpd-ECID-14">
          <mxGeometry x="-0.3615" y="1" relative="1" as="geometry">
            <mxPoint as="offset" />
          </mxGeometry>
        </mxCell>
        <mxCell id="8W1Rdy9I_rf0wpd-ECID-8" value="Take user guess" style="shape=parallelogram;perimeter=parallelogramPerimeter;whiteSpace=wrap;html=1;dashed=0;" vertex="1" parent="1">
          <mxGeometry x="250" y="340" width="180" height="50" as="geometry" />
        </mxCell>
        <mxCell id="8W1Rdy9I_rf0wpd-ECID-12" value="" style="edgeStyle=orthogonalEdgeStyle;rounded=0;orthogonalLoop=1;jettySize=auto;html=1;" edge="1" parent="1" source="8W1Rdy9I_rf0wpd-ECID-9" target="8W1Rdy9I_rf0wpd-ECID-11">
          <mxGeometry relative="1" as="geometry" />
        </mxCell>
        <mxCell id="8W1Rdy9I_rf0wpd-ECID-9" value="add one point" style="whiteSpace=wrap;html=1;dashed=0;" vertex="1" parent="1">
          <mxGeometry x="80" y="420" width="120" height="60" as="geometry" />
        </mxCell>
        <mxCell id="8W1Rdy9I_rf0wpd-ECID-23" value="" style="edgeStyle=orthogonalEdgeStyle;rounded=0;orthogonalLoop=1;jettySize=auto;html=1;" edge="1" parent="1" source="8W1Rdy9I_rf0wpd-ECID-11" target="8W1Rdy9I_rf0wpd-ECID-22">
          <mxGeometry relative="1" as="geometry" />
        </mxCell>
        <mxCell id="8W1Rdy9I_rf0wpd-ECID-11" value="clear console" style="whiteSpace=wrap;html=1;dashed=0;" vertex="1" parent="1">
          <mxGeometry x="80" y="560" width="120" height="60" as="geometry" />
        </mxCell>
        <mxCell id="8W1Rdy9I_rf0wpd-ECID-18" value="" style="edgeStyle=orthogonalEdgeStyle;rounded=0;orthogonalLoop=1;jettySize=auto;html=1;" edge="1" parent="1" source="8W1Rdy9I_rf0wpd-ECID-13" target="8W1Rdy9I_rf0wpd-ECID-17">
          <mxGeometry relative="1" as="geometry" />
        </mxCell>
        <mxCell id="8W1Rdy9I_rf0wpd-ECID-13" value="clear console&lt;div&gt;&lt;br&gt;&lt;/div&gt;" style="whiteSpace=wrap;html=1;dashed=0;" vertex="1" parent="1">
          <mxGeometry x="520" y="410" width="120" height="60" as="geometry" />
        </mxCell>
        <mxCell id="8W1Rdy9I_rf0wpd-ECID-21" value="" style="edgeStyle=orthogonalEdgeStyle;rounded=0;orthogonalLoop=1;jettySize=auto;html=1;" edge="1" parent="1" source="8W1Rdy9I_rf0wpd-ECID-17" target="8W1Rdy9I_rf0wpd-ECID-19">
          <mxGeometry relative="1" as="geometry" />
        </mxCell>
        <mxCell id="8W1Rdy9I_rf0wpd-ECID-17" value="print you lose" style="shape=parallelogram;perimeter=parallelogramPerimeter;whiteSpace=wrap;html=1;fixedSize=1;dashed=0;" vertex="1" parent="1">
          <mxGeometry x="520" y="550" width="120" height="60" as="geometry" />
        </mxCell>
        <mxCell id="8W1Rdy9I_rf0wpd-ECID-19" value="end game" style="html=1;dashed=0;whiteSpace=wrap;shape=mxgraph.dfd.start" vertex="1" parent="1">
          <mxGeometry x="540" y="660" width="80" height="30" as="geometry" />
        </mxCell>
        <mxCell id="8W1Rdy9I_rf0wpd-ECID-24" style="edgeStyle=orthogonalEdgeStyle;rounded=0;orthogonalLoop=1;jettySize=auto;html=1;exitX=1;exitY=0.5;exitDx=0;exitDy=0;entryX=0.5;entryY=1;entryDx=0;entryDy=0;" edge="1" parent="1" source="8W1Rdy9I_rf0wpd-ECID-22" target="8W1Rdy9I_rf0wpd-ECID-8">
          <mxGeometry relative="1" as="geometry" />
        </mxCell>
        <mxCell id="8W1Rdy9I_rf0wpd-ECID-22" value="pick another random celeb" style="whiteSpace=wrap;html=1;dashed=0;" vertex="1" parent="1">
          <mxGeometry x="80" y="700" width="120" height="60" as="geometry" />
        </mxCell>
      </root>
    </mxGraphModel>
  </diagram>
</mxfile>
